<svg width="326" height="461" viewBox="0 0 326 461" fill="none" xmlns="http://www.w3.org/2000/svg">
<path fill-rule="evenodd" clip-rule="evenodd" d="M181.204 95.9345C186.677 101.615 192.58 105.233 195.797 105.264C203.866 105.342 211.955 77.928 209.031 65.4827C206.106 53.0373 177.355 40.2505 170.065 61.4029C167.535 68.7442 168.889 76.2636 172.073 82.9564L153.352 119.518L177.539 125.999L181.204 95.9345Z" fill="#D4A181"/>
<path fill-rule="evenodd" clip-rule="evenodd" d="M214.645 56.0457C213.203 61.4261 207.806 64.6905 202.418 63.5506C199.128 63.6736 195.04 63.3156 190.632 62.4457C190.629 64.1385 190.376 65.9948 189.833 68.0234C189.353 69.8146 188.646 71.6613 187.765 73.4926C187.125 72.1253 186.064 71.0608 184.79 70.7193C181.225 69.764 177.958 72.0306 177.124 75.1432C176.065 79.0935 177.581 82.5627 180.85 83.6836C176.309 88.6347 171 91.8568 166.856 90.7464C158.984 88.6372 156.206 76.618 159.237 65.3078C159.343 64.9104 159.457 64.5177 159.577 64.1301C156.423 65.2439 153.312 66.9782 150.178 68.7249L150.178 68.7249C143.52 72.4364 136.76 76.2043 129.269 74.1969C114.28 70.1806 116.424 38.3649 137.366 43.9763C151.609 47.7925 158.058 51.7453 163.273 56.4325C165.363 53.3959 167.935 51.0612 170.683 49.686C171.378 49.2281 172.351 48.8725 173.551 48.6224C174.291 48.4423 175.037 48.3337 175.782 48.3012C179.781 47.9394 185.308 48.4091 191.254 49.782C192.364 50.0384 193.448 50.3166 194.498 50.6132C196.002 45.069 201.711 41.7833 207.266 43.2718C212.832 44.7632 216.136 50.4822 214.645 56.0457Z" fill="#191847"/>
<path fill-rule="evenodd" clip-rule="evenodd" d="M136.633 211.707L214.16 341.261L272.282 450.789H284.801L187.416 211.707L136.633 211.707Z" fill="#BA8B72"/>
<path fill-rule="evenodd" clip-rule="evenodd" d="M267.433 444.529C266.362 444.056 265.089 444.532 264.688 445.632C263.925 447.725 262.877 450.929 262.877 452.724C262.877 455.545 263.817 460.957 263.817 460.957C267.091 460.957 322.663 460.957 322.663 460.957C322.663 460.957 324.957 453.377 320.015 452.773C315.073 452.168 311.804 451.681 311.804 451.681L284.412 439.475C283.897 439.246 283.295 439.487 283.08 440.007L281.305 444.311C281.305 444.311 276.73 446.445 273.87 446.445C272.102 446.445 269.308 445.359 267.433 444.529Z" fill="#E4E4E4"/>
<path fill-rule="evenodd" clip-rule="evenodd" d="M256.14 433.251L280.283 425.95C280.283 425.95 264.416 378.538 241.39 321.6C218.363 264.662 191.93 211.707 191.93 211.707H123.742C123.742 211.707 153.13 278.693 186.052 333.438C218.974 388.183 256.14 433.251 256.14 433.251Z" fill="#DB2721"/>
<path fill-rule="evenodd" clip-rule="evenodd" d="M131.538 211.707C124.221 257.233 110.109 315.398 108.777 317.193C107.889 318.39 75.9245 329.096 12.8834 349.313L15.5877 360.347C90.764 349.505 130.376 341.094 134.422 335.112C140.492 326.14 170.801 255.261 182.54 211.707H131.538Z" fill="#D4A181"/>
<path fill-rule="evenodd" clip-rule="evenodd" d="M35.0435 339.774L39.8067 357.546C96.0343 362.476 130.486 358.914 143.162 346.861C155.838 334.808 170.286 289.756 186.504 211.707H121.482C111.207 275.619 105.462 308.916 104.248 311.599C103.035 314.282 79.9663 323.674 35.0435 339.774Z" fill="#FF4133"/>
<path fill-rule="evenodd" clip-rule="evenodd" d="M17.6435 347.27C17.9243 346.133 17.234 344.961 16.0807 344.758C13.8861 344.37 10.5473 343.894 8.77878 344.206C5.99951 344.696 0.830772 346.561 0.830772 346.561C1.39928 349.784 11.0493 404.488 11.0493 404.488C11.0493 404.488 18.9156 405.43 18.6529 400.46C18.3901 395.491 18.3024 392.188 18.3024 392.188L25.5715 363.105C25.7082 362.559 25.3663 362.007 24.8159 361.886L20.2676 360.886C20.2676 360.886 17.3709 356.753 16.8743 353.937C16.5673 352.197 17.152 349.26 17.6435 347.27Z" fill="#E4E4E4"/>
<path fill-rule="evenodd" clip-rule="evenodd" d="M42.5754 226.787C47.5692 222.006 82.2184 167.245 82.2184 167.245L99.7355 173.711C99.7355 173.711 57.2175 230.644 54.3414 233.84C50.6051 237.992 51.3683 246.278 51.8858 251.896C51.9659 252.765 52.0401 253.571 52.0908 254.287C48.4397 254.549 47.5493 252.302 46.6106 249.934C45.5504 247.259 44.4286 244.428 39.1975 244.881C37.1765 245.056 35.1951 245.411 33.2592 245.758C26.5722 246.956 20.4291 248.057 15.08 241.292C14.232 240.22 13.958 237.244 17.5758 236.313C26.5891 233.994 40.134 229.124 42.5754 226.787ZM257.304 233.255L228.771 203.417L218.37 220.042L248.453 239.219C255.731 251.616 260.072 257.014 261.474 255.414C262.657 254.065 262.19 252.524 261.76 251.105C261.425 250 261.113 248.968 261.619 248.158C262.777 246.308 268.906 247.605 274.669 249.085C280.432 250.564 279.188 247.665 278.005 246.133C272.671 241.513 265.77 237.22 257.304 233.255Z" fill="#D4A181"/>
<path fill-rule="evenodd" clip-rule="evenodd" d="M184.609 107.641L172.826 110.208C172.435 113.097 171.704 117.176 170.867 121.85C168.238 136.518 164.561 157.039 167.069 164.995C175.758 192.556 200.422 210.463 227.891 230.408C231.573 233.082 235.305 235.792 239.056 238.566L250.3 223.152C249.461 222.305 248.632 221.455 247.812 220.603C249.192 220.377 250.456 219.54 251.177 218.219C252.419 215.944 251.581 213.093 249.305 211.851C244.679 209.328 240.215 207.821 235.945 207.38C209.723 176.012 194.346 141.992 184.609 107.641Z" fill="#69A1AC"/>
<path fill-rule="evenodd" clip-rule="evenodd" d="M114.759 213.79C114.759 213.79 162.275 227.655 191.036 227.24C193.411 227.206 195.057 217.286 194.468 214.393C185.298 169.353 179.817 136.598 184.975 107.346C179.986 108.926 168.861 105.242 168.861 105.242C143.084 131.779 127.58 164.708 114.759 213.79Z" fill="#191847"/>
<path fill-rule="evenodd" clip-rule="evenodd" d="M53.2187 203.464C96.1547 126.925 161.05 101.325 161.05 101.325L162.649 101.607L166.6 102.304L172.736 103.385C168.327 120.648 170.056 147.206 172.063 178.014L172.063 178.014C175.272 227.285 179.189 287.428 159.837 337.812C146.863 338.397 132.531 333.908 117.015 329.049L117.015 329.049C94.6223 322.036 69.7644 314.25 42.9659 319.832C47.6164 299.102 63.9039 278.119 80.1178 257.231C90.377 244.014 100.607 230.835 107.84 217.782C106.921 216.601 106.611 214.987 107.161 213.476L108.364 210.173C109.077 208.215 111.008 207.052 112.99 207.229C113.6 205.764 114.161 204.3 114.669 202.839C117.292 195.297 117.844 187.484 118.39 179.759L118.39 179.759C118.689 175.517 118.987 171.302 119.625 167.173C103.703 177.001 83.2776 195.429 62.6916 229.984L44.2922 220.854C45.5201 218.23 46.7756 215.656 48.056 213.134C46.028 211.5 44.416 205.157 46.4805 204.511C48.6619 203.828 50.9097 203.482 53.2187 203.464Z" fill="#89C5CC"/>
<path fill-rule="evenodd" clip-rule="evenodd" d="M165.113 103.1L156.939 118.46L165.46 132.558L154.12 140.456L170.416 184.518L148.903 139.618L160.086 131.61L152.513 119.144L165.113 103.1Z" fill="black" fill-opacity="0.1"/>
<path fill-rule="evenodd" clip-rule="evenodd" d="M160.854 198.716C163.124 199.116 165.288 197.602 165.688 195.333C166.088 193.064 164.573 190.9 162.303 190.5C160.033 190.1 157.869 191.614 157.468 193.883C157.068 196.152 158.584 198.316 160.854 198.716ZM161.826 223.244C164.096 223.644 166.26 222.13 166.661 219.861C167.061 217.592 165.545 215.428 163.275 215.028C161.005 214.628 158.841 216.142 158.441 218.411C158.041 220.68 159.556 222.844 161.826 223.244ZM163.523 243.664C163.123 245.933 160.958 247.448 158.689 247.047C156.419 246.647 154.903 244.483 155.303 242.214C155.703 239.946 157.867 238.431 160.137 238.831C162.407 239.231 163.923 241.395 163.523 243.664Z" fill="black" fill-opacity="0.4"/>
</svg>
