<svg width="314" height="460" viewBox="0 0 314 460" fill="none" xmlns="http://www.w3.org/2000/svg">
<path fill-rule="evenodd" clip-rule="evenodd" d="M141.408 92.7412C148.979 94.9271 155.891 95.1112 158.689 93.5302C165.706 89.5656 159.003 61.7776 150.255 52.4586C141.507 43.1396 110.254 46.4303 114.52 68.3954C116 76.0188 120.929 81.8557 127.026 86.0622L129.106 127.087L153.261 120.615L141.408 92.7412Z" fill="#915B3C"/>
<path fill-rule="evenodd" clip-rule="evenodd" d="M153.844 56.7335C153.227 55.3871 152.223 53.9774 151.393 52.7694C150.324 51.2121 148.988 49.9077 147.583 48.7173C144.938 46.4762 141.984 44.604 138.906 43.2182C133.282 40.6868 126.826 40.0875 121.239 42.341C118.418 43.4787 115.885 45.3509 113.972 47.85C112.244 50.108 110.81 53.1343 108.038 54.0668C105.023 55.0813 101.485 53.1246 98.5763 52.1099C95.297 50.9662 91.9779 50.3819 88.5929 50.716C82.9224 51.2761 78.3128 54.4797 75.7652 59.9427C73.0541 65.7561 72.024 73.4922 76.3245 79.0801C77.1239 80.1188 78.0135 80.9367 79.13 81.513C80.1539 82.0415 81.6247 82.5015 82.2792 83.6088C82.9746 84.786 82.3553 86.7109 82.2522 87.9689C82.1045 89.7711 82.084 91.6269 82.7347 93.3684C83.8035 96.2285 86.3974 98.5371 88.8605 99.9452C91.367 101.378 94.1061 101.851 96.8485 101.672C98.6797 101.553 100.507 101.268 102.239 100.665C103.099 100.365 103.808 99.9139 104.605 99.4923C105.381 99.0823 105.902 99.1782 106.725 99.444C110.546 100.679 114.267 100.556 117.943 99.235C121.046 98.1199 124.498 96.3697 126.504 93.4991C128.732 90.311 127.781 86.9925 126.15 83.6119C126.962 83.7754 129.004 83.4642 127.439 82.3643C126.82 81.9286 125.871 81.9379 125.18 81.769C124.376 81.5725 123.531 81.2665 122.818 80.7853C119.94 78.8422 120.781 73.0936 123.317 71.5036C127.086 69.1416 129.563 74.709 132.898 75.4273C134.815 75.8403 136.262 74.186 137.201 72.6408C138.46 70.5709 139.039 68.1203 139.45 65.6742C139.789 63.6597 140.065 61.6352 140.422 59.6254C140.589 58.6869 141.308 55.9673 140.377 55.2061C143.161 53.8308 146.765 54.1765 149.728 55.1023C150.953 55.4852 151.947 56.0026 152.82 57.024C153.007 57.2429 153.467 57.919 153.802 57.8619C154.426 57.7557 153.999 57.0718 153.844 56.7335Z" fill="#191847"/>
<path fill-rule="evenodd" clip-rule="evenodd" d="M102.494 312.992C102.494 312.992 139.987 323.489 167.19 323.489C194.393 323.489 217.725 307.323 217.725 307.323C217.725 307.323 181.034 296.549 157.292 296.549C133.55 296.549 102.494 312.992 102.494 312.992Z" fill="#1F28CF"/>
<path fill-rule="evenodd" clip-rule="evenodd" d="M188.828 333.577C188.587 333.214 188.384 332.82 188.222 332.392C184.881 323.547 131.365 228.131 126.033 210.686H186.285C190.339 223.95 208.584 307.184 211.151 323.791C219.253 349.986 235.933 434.822 238.062 440.699C240.302 446.882 227.698 453.322 224.34 445.722C218.995 433.627 206.262 400.163 200.592 379.729C195.277 360.573 190.949 343.339 188.828 333.577Z" fill="#784931"/>
<path fill-rule="evenodd" clip-rule="evenodd" d="M139.534 345.226C115.067 351.416 25.5732 362.607 19.4317 364.362C13.114 366.168 7.57466 353.132 15.3836 350.309C27.809 345.816 62.0465 335.435 82.8049 331.198C99.5017 327.791 114.738 325.011 124.967 323.382C124.1 294.62 120.139 225.594 122.735 210.686H176.047C173.557 224.982 152.509 329.294 148.597 339.735C147.356 343.463 143.651 345.11 139.534 345.226Z" fill="#915B3C"/>
<path fill-rule="evenodd" clip-rule="evenodd" d="M17.6217 349.391C17.902 348.255 17.2127 347.084 16.0604 346.88C13.8687 346.493 10.5345 346.017 8.76838 346.329C5.99281 346.818 0.830946 348.684 0.830946 348.684C1.39869 351.907 11.0358 406.617 11.0358 406.617C11.0358 406.617 18.8917 407.559 18.6293 402.589C18.367 397.619 18.2793 394.316 18.2793 394.316L25.539 365.229C25.6754 364.683 25.334 364.131 24.7841 364.01L20.2419 363.01C20.2419 363.01 17.3491 358.877 16.8531 356.061C16.5464 354.32 17.1308 351.381 17.6217 349.391Z" fill="#E4E4E4"/>
<path fill-rule="evenodd" clip-rule="evenodd" d="M223.321 443.535C222.25 443.061 220.976 443.537 220.575 444.638C219.813 446.731 218.767 449.935 218.767 451.729C218.767 454.551 219.706 459.963 219.706 459.963C222.975 459.963 278.473 459.963 278.473 459.963C278.473 459.963 280.764 452.382 275.829 451.778C270.893 451.173 267.629 450.686 267.629 450.686L240.275 438.48C239.76 438.25 239.158 438.491 238.943 439.012L237.171 443.315C237.171 443.315 232.602 445.449 229.745 445.449C227.981 445.449 225.194 444.365 223.321 443.535Z" fill="#E4E4E4"/>
<path fill-rule="evenodd" clip-rule="evenodd" d="M122.908 210.686C122.908 210.686 158.147 200.594 189.592 210.686C196.886 243.997 214.608 257.218 217.725 308.289C182.299 325.909 138.537 295.722 102.069 312.906C91.6493 288.87 106.237 230.987 122.908 210.686Z" fill="#2B44FF"/>
<path fill-rule="evenodd" clip-rule="evenodd" d="M210.661 116.205L178.487 142.012L194.132 153.824L215.829 125.541C228.799 119.376 234.548 115.525 233.077 113.989C231.837 112.693 230.263 113.024 228.813 113.328C227.684 113.564 226.63 113.785 225.868 113.21C224.127 111.896 225.95 105.906 227.923 100.295C229.895 94.6849 226.902 95.6708 225.275 96.7146C220.213 101.624 215.342 108.12 210.661 116.205ZM251.302 137.29L237.174 148.651L240.836 164.21C240.836 164.21 249.678 155.103 257.966 151.132C268.534 146.07 272.613 142.908 276.823 135.023C279.076 130.804 280.229 122.918 277.034 120.979C275.809 120.235 272.243 123.131 268.605 126.086C265.832 128.339 263.017 130.625 261.164 131.36C258.67 132.35 258.381 128.938 258.15 126.212C257.984 124.255 257.848 122.652 256.949 123.281C252.383 124.167 251.302 137.29 251.302 137.29Z" fill="#915B3C"/>
<path fill-rule="evenodd" clip-rule="evenodd" d="M160.375 140.721C172.827 138.389 188.997 132.818 204.759 118.41L214.474 132.742C204.375 147.064 188.921 160.093 173.793 162.324C161.872 164.082 153.276 150.788 160.375 140.721Z" fill="#2026A2"/>
<path fill-rule="evenodd" clip-rule="evenodd" d="M145.528 253.265C133.395 253.808 122.247 254.307 116.013 256.719C104.614 234.441 108.015 218.549 111.155 203.878C113.048 195.036 114.846 186.638 113.251 177.552C108.606 151.095 122.646 106.635 125.768 106.084L126.664 105.926L151.406 101.564L154.239 101.064C158.398 117.21 166.957 133.976 175.57 150.85C177.581 154.791 179.595 158.737 181.558 162.683C203.078 163.736 246.138 139.269 246.138 139.269C246.138 139.269 261.972 161.244 262.901 171.627C238.623 190.326 216.801 200.603 197.99 204.344C200.568 215.454 201.086 226.368 198.224 236.927C194.389 251.076 168.235 252.248 145.528 253.265Z" fill="#1F28CF"/>
</svg>
